PathFileType	4	(X/Y/Z)	/Users/itak/Documents/Research/Walk-IL/dataset/trc/00060_00006.trc
DataRate	CameraRate	NumFrames	NumMarkers	Units	OrigDataRate	OrigDataStartFrame	OrigNumFrames
100.000000	100.000000	4	53	mm	100.000000	637	729
Frame#	Time	RPSI			LPSI			L3			STRN			T10			C7			CLAV			RBAK			LBAK			LSHO			LUPA			LAEL			LAOL			LWTS			LWPS			LFRA			LIFD			LHPS			LHTS			RSHO			RUPA			RAEL			RAOL			RWTS			RWPS			RFRA			RIFD			RHTS			RHPS			RBHD			LFHD			RFHD			LBHD			LHIP			RHIP			RASI			LASI			LKNE			LTHI			LANK			LTIP			LTOE			LMT1			LMT5			LHEE			RKNE			RTHI			RANK			RTIP			RTOE			RMT1			RMT5			RHEE			
		X1	Y1	Z1	X2	Y2	Z2	X3	Y3	Z3	X4	Y4	Z4	X5	Y5	Z5	X6	Y6	Z6	X7	Y7	Z7	X8	Y8	Z8	X9	Y9	Z9	X10	Y10	Z10	X11	Y11	Z11	X12	Y12	Z12	X13	Y13	Z13	X14	Y14	Z14	X15	Y15	Z15	X16	Y16	Z16	X17	Y17	Z17	X18	Y18	Z18	X19	Y19	Z19	X20	Y20	Z20	X21	Y21	Z21	X22	Y22	Z22	X23	Y23	Z23	X24	Y24	Z24	X25	Y25	Z25	X26	Y26	Z26	X27	Y27	Z27	X28	Y28	Z28	X29	Y29	Z29	X30	Y30	Z30	X31	Y31	Z31	X32	Y32	Z32	X33	Y33	Z33	X34	Y34	Z34	X35	Y35	Z35	X36	Y36	Z36	X37	Y37	Z37	X38	Y38	Z38	X39	Y39	Z39	X40	Y40	Z40	X41	Y41	Z41	X42	Y42	Z42	X43	Y43	Z43	X44	Y44	Z44	X45	Y45	Z45	X46	Y46	Z46	X47	Y47	Z47	X48	Y48	Z48	X49	Y49	Z49	X50	Y50	Z50	X51	Y51	Z51	X52	Y52	Z52	X53	Y53	Z53	

638	6.37	-666.0502319335938	1035.042358398438	949.7411499023438	-576.2337036132812	1022.068115234375	800.8236694335938	-616.9267578125	1090.168579101562	870.6882934570312	-421.76513671875	1291.936889648438	1022.465454101562	-628.3848876953125	1223.92041015625	851.3139038085938	-579.7903442382812	1490.954956054688	881.1893310546875	-675.996826171875	1354.028564453125	901.0940551757812	-444.3355712890625	1405.641845703125	998.4315795898438	-534.02734375	1451.988647460938	789.3761596679688	-409.48486328125	1454.831298828125	800.146484375	-370.7718811035156	1333.081176757812	727.5814208984375	-323.7153625488281	1124.111083984375	711.5596923828125	-424.623291015625	1098.688110351562	738.3690185546875	-266.2875366210938	889.3823852539062	817.803955078125	-274.2753295898438	877.1799926757812	735.0277709960938	-291.6443786621094	1017.278137207031	717.1616821289062	-252.7713165283203	703.709716796875	839.9304809570312	-245.1889038085938	798.2481689453125	758.3297119140625	-241.1184387207031	807.6297607421875	828.9308471679688	-642.6644897460938	1463.180053710938	1055.009155273438	-697.0137329101562	1402.859619140625	1095.10400390625	-792.2674560546875	1162.908569335938	1117.96630859375	-719.411865234375	1120.81201171875	1062.982543945312	-698.1118774414062	895.440673828125	1197.421997070312	-785.0971069335938	895.0338134765625	1184.24365234375	-802.3882446289062	1082.106079101562	1139.010498046875	-721.999755859375	703.8573608398438	1177.548950195312	-703.8662109375	786.9866943359375	1206.168334960938	-780.1309204101562	802.819580078125	1202.29931640625	-541.7061157226562	1675.361450195312	886.1001586914062	-401.8745422363281	1696.667114257812	1049.508911132812	-369.6045532226562	1699.9921875	927.413818359375	-568.7716674804688	1664.302368164062	1021.550476074219	-435.0942993164062	966.4869995117188	786.3876342773438	-657.7587890625	964.843017578125	1051.298217773438	-546.1215209960938	983.34765625	1108.4228515625	-380.4165649414062	979.5540771484375	897.7023315429688	-310.7042846679688	517.1478881835938	917.3271484375	-344.6549072265625	653.2118530273438	852.7825927734375	-494.797607421875	80.27173614501953	812.4866943359375	-410.5070190429688	286.6257629394531	844.731201171875	-322.4320678710938	64.39021301269531	914.6831665039062	-389.2823791503906	62.40647506713867	938.6983642578125	-389.5280151367188	60.69826126098633	827.7649536132812	-576.8600463867188	87.8253173828125	855.05419921875	-552.1888427734375	524.6450805664062	1086.184936523438	-580.5585327148438	795.4170532226562	1107.454223632812	-633.6716918945312	47.43217468261719	1001.356750488281	-570.6878051757812	397.8188781738281	1073.161865234375	-448.556640625	43.00891494750977	1118.106689453125	-465.3919372558594	50.83135986328125	1046.621337890625	-553.444580078125	48.26508712768555	1094.598022460938	-631.7179565429688	53.0032958984375	929.1389770507812	
639	6.38	-663.8804931640625	1035.163208007812	953.8765869140625	-575.4529418945312	1022.547546386719	804.03515625	-615.3416748046875	1089.960083007812	874.4654541015625	-418.9429931640625	1291.97412109375	1024.1728515625	-627.1395874023438	1223.778076171875	855.0827026367188	-578.336669921875	1490.869018554688	884.3281860351562	-674.259033203125	1353.895263671875	905.2427978515625	-441.7730407714844	1405.67578125	1000.328674316406	-533.5203247070312	1451.864379882812	792.0332641601562	-408.9350891113281	1454.723266601562	801.5978393554688	-370.8480834960938	1332.988525390625	728.7620849609375	-323.5823059082031	1124.06396484375	712.5070190429688	-424.1189270019531	1098.522094726562	740.255615234375	-264.8921813964844	889.4144287109375	818.228515625	-273.5609741210938	877.2399291992188	735.5308227539062	-291.3175659179688	1017.302734375	717.856201171875	-250.9059600830078	703.7688598632812	840.2091064453125	-244.1484069824219	798.32080078125	758.5630493164062	-239.4778442382812	807.7256469726562	829.1785888671875	-639.6143188476562	1463.1162109375	1058.705810546875	-693.6275634765625	1402.924560546875	1099.302978515625	-788.6571655273438	1162.876586914062	1123.05078125	-715.9708251953125	1120.81298828125	1067.78564453125	-693.8125610351562	895.3726196289062	1201.616821289062	-780.9224243164062	895.021484375	1189.261596679688	-798.607177734375	1082.083618164062	1144.2001953125	-718.042236328125	703.8862915039062	1181.7119140625	-699.606689453125	786.8114624023438	1210.291015625	-775.8034057617188	802.7548217773438	1207.202392578125	-540.3719482421875	1675.2255859375	888.7723388671875	-398.9158935546875	1696.923217773438	1050.70068359375	-367.9342346191406	1700.288330078125	928.2664184570312	-566.0477905273438	1664.13623046875	1024.44384765625	-434.4514770507812	966.7940063476562	788.283447265625	-654.406982421875	964.697021484375	1055.16455078125	-542.193603515625	982.9494018554688	1111.234497070312	-378.7107543945312	979.5894775390625	898.8143920898438	-311.0736389160156	517.008056640625	916.9791870117188	-345.0308837890625	652.9259033203125	852.7477416992188	-486.6070556640625	75.72408294677734	820.1055297851562	-406.64453125	284.0891418457031	848.5675048828125	-312.6378784179688	64.97609710693359	920.19921875	-379.0546569824219	61.62557983398438	945.0645141601562	-380.714599609375	58.87217330932617	834.1998291015625	-568.3236083984375	81.83391571044922	863.5802612304688	-551.325927734375	524.090576171875	1086.898803710938	-577.7511596679688	794.8756713867188	1109.757446289062	-633.8228759765625	47.16451263427734	1001.455078125	-570.4281616210938	397.5030822753906	1073.48681640625	-448.6325988769531	43.05118560791016	1118.030639648438	-465.5003356933594	50.86984634399414	1046.597412109375	-553.56689453125	48.13325881958008	1094.640258789062	-631.9921875	52.82449340820312	929.1602172851562	
640	6.390000000000001	-661.7861938476562	1035.281616210938	957.7599487304688	-574.696533203125	1023.029907226562	807.0515747070312	-613.7205810546875	1089.735595703125	878.0775756835938	-416.1148071289062	1291.953735351562	1025.742553710938	-625.8848266601562	1223.61962890625	858.7163696289062	-576.876953125	1490.773193359375	887.36767578125	-672.5135498046875	1353.73828125	909.2636108398438	-439.2066345214844	1405.654418945312	1002.116760253906	-533.0014038085938	1451.73583984375	794.6088256835938	-408.3764953613281	1454.598510742188	802.9649047851562	-370.9588317871094	1332.8623046875	729.836181640625	-323.4837951660156	1123.977172851562	713.3338623046875	-423.6727294921875	1098.3251953125	742.0311279296875	-263.5282592773438	889.4796752929688	818.6542358398438	-272.9014282226562	877.2651977539062	736.0469360351562	-291.0246887207031	1017.285217285156	718.4730224609375	-249.0417175292969	703.8760375976562	840.6248168945312	-243.1537933349609	798.3851928710938	758.8627319335938	-237.8566284179688	807.8706665039062	829.4616088867188	-636.5409545898438	1463.002563476562	1062.292114257812	-690.2125244140625	1402.911743164062	1103.374877929688	-785.022705078125	1162.74853515625	1127.917602539062	-712.622802734375	1120.73095703125	1072.27099609375	-689.5338745117188	895.1914672851562	1205.567260742188	-776.7548217773438	894.9169311523438	1194.00927734375	-794.8082275390625	1081.98095703125	1149.1484375	-714.0753784179688	703.8098754882812	1185.61669921875	-695.34130859375	786.5559692382812	1214.157836914062	-771.5015869140625	802.5830078125	1211.814575195312	-539.0747680664062	1675.035400390625	891.3779296875	-395.9598083496094	1697.1767578125	1051.755981445312	-366.3094482421875	1700.564697265625	928.9942016601562	-563.3176879882812	1663.9267578125	1027.269653320312	-433.8754272460938	967.0767822265625	790.0106201171875	-651.119140625	964.5054931640625	1058.78857421875	-538.3606567382812	982.4849853515625	1113.838989257812	-377.0517883300781	979.5809326171875	899.7699584960938	-311.5625610351562	516.9140014648438	916.7032470703125	-345.5356750488281	652.6386108398438	852.7698974609375	-478.7965087890625	71.73759460449219	827.30908203125	-402.9688415527344	281.8531799316406	852.2642211914062	-303.4515991210938	65.85124206542969	925.3698120117188	-369.4342651367188	61.25738143920898	951.0616455078125	-372.3882751464844	57.43700790405273	840.2711791992188	-560.1441650390625	76.51891326904297	871.6240234375	-550.6046752929688	523.5125122070312	1087.472290039062	-575.037353515625	794.3107299804688	1111.899047851562	-633.9735107421875	46.84986877441406	1001.573547363281	-570.2862548828125	397.1653137207031	1073.698364257812	-448.71630859375	43.09536743164062	1117.952026367188	-465.6195068359375	50.91136169433594	1046.56982421875	-553.700927734375	48.00360870361328	1094.668823242188	-632.2877807617188	52.57613372802734	929.1898193359375	
641	6.4	-659.7674560546875	1035.39306640625	961.4026489257812	-573.96630859375	1023.516906738281	809.8824462890625	-612.0932006835938	1089.515747070312	881.5186157226562	-413.2735595703125	1291.886596679688	1027.177490234375	-624.6300048828125	1223.464477539062	862.2120971679688	-575.3970336914062	1490.676635742188	890.313232421875	-670.7620239257812	1353.578857421875	913.1568603515625	-436.6277465820312	1405.583984375	1003.794677734375	-532.4618530273438	1451.616333007812	797.1058349609375	-407.7940368652344	1454.4677734375	804.2542114257812	-371.0809326171875	1332.712524414062	730.8145141601562	-323.41748046875	1123.861328125	714.0447998046875	-423.2827758789062	1098.11279296875	743.6944580078125	-262.1963500976562	889.5792846679688	819.0677490234375	-272.3035583496094	877.2587890625	736.5641479492188	-290.7685241699219	1017.231262207031	719.005615234375	-247.1782684326172	704.04150390625	841.1654663085938	-242.21337890625	798.4436645507812	759.2154541015625	-236.2496948242188	808.0694580078125	829.761474609375	-633.4310913085938	1462.859252929688	1065.772705078125	-686.755859375	1402.833251953125	1107.326049804688	-781.3578491210938	1162.546630859375	1132.570678710938	-709.3826293945312	1120.588745117188	1076.393310546875	-685.2504272460938	894.9210205078125	1209.282348632812	-772.5738525390625	894.7297973632812	1198.488403320312	-790.9780883789062	1081.813598632812	1153.860473632812	-710.0667724609375	703.634521484375	1189.299682617188	-691.048095703125	786.2691650390625	1217.79541015625	-767.202392578125	802.3224487304688	1216.149658203125	-537.8139038085938	1674.799926757812	893.9266967773438	-392.9984130859375	1697.431030273438	1052.675537109375	-364.7276611328125	1700.825927734375	929.5994262695312	-560.5685424804688	1663.68212890625	1030.039916992188	-433.3788146972656	967.3565063476562	791.5584106445312	-647.90771484375	964.2662963867188	1062.181640625	-534.6295776367188	981.9699096679688	1116.235717773438	-375.4481811523438	979.5548706054688	900.5834350585938	-312.1491394042969	516.8726196289062	916.4788818359375	-346.1412353515625	652.3746337890625	852.8381958007812	-471.3680114746094	68.25904083251953	834.1459350585938	-399.4826965332031	279.8955688476562	855.8314208984375	-294.7966613769531	66.97652435302734	930.1721801757812	-360.3487854003906	61.24219512939453	956.6923828125	-364.5313415527344	56.35895919799805	845.982421875	-552.3182983398438	71.80957794189453	879.2713012695312	-550.0025024414062	522.9234008789062	1087.917602539062	-572.4136352539062	793.7440185546875	1113.887084960938	-634.1229858398438	46.50839233398438	1001.689453125	-570.232666015625	396.809814453125	1073.806030273438	-448.8052062988281	43.14064788818359	1117.869873046875	-465.7471313476562	50.94983673095703	1046.537231445312	-553.8424682617188	47.88730621337891	1094.6728515625	-632.5888061523438	52.26431655883789	929.2141723632812	
